# Exolith Lab event tent canopy, generated; see exolith_lab/model.sdf
# Inward-facing windings only: ogre2 culls back faces, so the canopy is
# drawn from underneath (the rover's sensors) and see-through from outside
# (the Gazebo GUI looking down on the arena).
v -8.500 -4.000 3.060
v -8.500 13.000 3.060
v 0.000 13.000 5.560
v 0.000 -4.000 5.560
v -8.500 -4.000 3.060
v -8.500 13.000 3.060
v -8.500 13.000 2.710
v -8.500 -4.000 2.710
v 8.500 -4.000 3.060
v 8.500 13.000 3.060
v 0.000 13.000 5.560
v 0.000 -4.000 5.560
v 8.500 -4.000 3.060
v 8.500 13.000 3.060
v 8.500 13.000 2.710
v 8.500 -4.000 2.710
v -8.500 -4.000 3.060
v 8.500 -4.000 3.060
v 0.000 -4.000 5.560
v -8.500 -4.000 3.060
v 8.500 -4.000 3.060
v 8.500 -4.000 2.710
v -8.500 -4.000 2.710
v -8.500 13.000 3.060
v 8.500 13.000 3.060
v 0.000 13.000 5.560
v -8.500 13.000 3.060
v 8.500 13.000 3.060
v 8.500 13.000 2.710
v -8.500 13.000 2.710
f 1 2 3 4
f 8 7 6 5
f 12 11 10 9
f 13 14 15 16
f 19 18 17
f 20 21 22 23
f 24 25 26
f 30 29 28 27
