<?xml version="1.0" encoding="UTF-8" standalone="no" ?>
<COLLADA xmlns="http://www.collada.org/2005/11/COLLADASchema" version="1.4.1">
  <asset>
    <contributor>
      <author>Assimp</author>
      <authoring_tool>Assimp Exporter</authoring_tool>
    </contributor>
    <created>2026-09-22T21:57:54</created>
    <modified>2026-09-22T21:57:54</modified>
    <unit name="meter" meter="1" />
    <up_axis>Z_UP</up_axis>
  </asset>
  <library_images>
  </library_images>
  <library_effects>
    <effect id="DefaultMaterial-fx" name="DefaultMaterial">
      <profile_COMMON>
        <technique sid="standard">
          <phong>
            <ambient>
              <color sid="ambient">0.0500000007   0.0500000007   0.0500000007   1</color>
            </ambient>
            <diffuse>
              <color sid="diffuse">1   1   1   1</color>
            </diffuse>
            <specular>
              <color sid="specular">1   1   1   1</color>
            </specular>
          </phong>
        </technique>
      </profile_COMMON>
    </effect>
  </library_effects>
  <library_materials>
    <material id="DefaultMaterial" name="DefaultMaterial">
      <instance_effect url="#DefaultMaterial-fx"/>
    </material>
  </library_materials>
  <library_geometries>
    <geometry id="mesh_0" name="" >
      <mesh>
        <source id="mesh_0-positions" name="mesh_0-positions">
          <float_array id="mesh_0-positions-array" count="1476"> 3.35368426e-08 -0.27700001 -0.010125922 -0.00923876837 -0.27700001 -0.0139528196 -0.00707106665 -0.27700001 -0.0171970222 -0.00707106665 -0.27700001 -0.0171970222 -0.00382686779 -0.27700001 -0.0193647202 3.35368426e-08 -0.27700001 -0.010125922 -0.00382686779 -0.27700001 -0.0193647202 3.35368426e-08 -0.27700001 -0.02012592 3.35368426e-08 -0.27700001 -0.010125922 3.35368426e-08 -0.27700001 -0.02012592 0.00382683426 -0.27700001 -0.0193647202 3.35368426e-08 -0.27700001 -0.010125922 0.00382683426 -0.27700001 -0.0193647202 0.00707103685 -0.27700001 -0.0171970222 3.35368426e-08 -0.27700001 -0.010125922 0.00707103685 -0.27700001 -0.0171970222 0.00923883542 -0.27700001 -0.0139528196 3.35368426e-08 -0.27700001 -0.010125922 0.00923883542 -0.27700001 -0.0139528196 0.0100000314 -0.27700001 -0.010125922 3.35368426e-08 -0.27700001 -0.010125922 0.0100000314 -0.27700001 -0.010125922 0.00923883542 -0.27700001 -0.00629912131 3.35368426e-08 -0.27700001 -0.010125922 0.00923883542 -0.27700001 -0.00629912131 0.00707103685 -0.27700001 -0.00305492058 3.35368426e-08 -0.27700001 -0.010125922 0.00707103685 -0.27700001 -0.00305492058 0.00382683426 -0.27700001 -0.000887220667 3.35368426e-08 -0.27700001 -0.010125922 0.00382683426 -0.27700001 -0.000887220667 3.35368426e-08 -0.27700001 -0.000125920356 3.35368426e-08 -0.27700001 -0.010125922 3.35368426e-08 -0.27700001 -0.000125920356 -0.00382686779 -0.27700001 -0.000887220667 3.35368426e-08 -0.27700001 -0.010125922 -0.00382686779 -0.27700001 -0.000887220667 -0.00707106665 -0.27700001 -0.00305492058 3.35368426e-08 -0.27700001 -0.010125922 -0.00707106665 -0.27700001 -0.00305492058 -0.00923876837 -0.27700001 -0.00629912131 3.35368426e-08 -0.27700001 -0.010125922 -0.00923876837 -0.27700001 -0.00629912131 -0.00999996811 -0.27700001 -0.010125922 3.35368426e-08 -0.27700001 -0.010125922 -0.00999996811 -0.27700001 -0.010125922 -0.00923876837 -0.27700001 -0.0139528196 3.35368426e-08 -0.27700001 -0.010125922 -0.00999996811 0.00919971336 -0.010125922 -0.00999996811 -0.27700001 -0.010125922 -0.00923876837 -0.27700001 -0.00629912131 -0.00923876837 0.00919971336 -0.00629912131 -0.00923876837 -0.27700001 -0.00629912131 -0.00707106665 -0.27700001 -0.00305492058 -0.00707106665 0.00919971336 -0.00305492058 -0.00707106665 -0.27700001 -0.00305492058 -0.00382686779 -0.27700001 -0.000887220667 0.00382683426 0.00919971336 -0.000887220667 0.00382683426 -0.27700001 -0.000887220667 0.00707103685 -0.27700001 -0.00305492058 0.00707103685 0.00919971336 -0.00305492058 0.00707103685 -0.27700001 -0.00305492058 0.00923883542 -0.27700001 -0.00629912131 0.00923883542 0.00919971336 -0.00629912131 0.00923883542 -0.27700001 -0.00629912131 0.0100000314 -0.27700001 -0.010125922 0.0100000314 0.00919971336 -0.010125922 0.0100000314 -0.27700001 -0.010125922 0.00923883542 -0.27700001 -0.0139528196 0.00923883542 0.00919971336 -0.0139528196 0.00923883542 -0.27700001 -0.0139528196 0.00707103685 -0.27700001 -0.0171970222 0.00707103685 0.00919971336 -0.0171970222 0.00707103685 -0.27700001 -0.0171970222 0.00382683426 -0.27700001 -0.0193647202 -0.00382686779 0.00919971336 -0.0193647202 -0.00382686779 -0.27700001 -0.0193647202 -0.00707106665 -0.27700001 -0.0171970222 -0.00707106665 0.00919971336 -0.0171970222 -0.00707106665 -0.27700001 -0.0171970222 -0.00923876837 -0.27700001 -0.0139528196 -0.00923876837 0.00919971336 -0.0139528196 -0.00923876837 -0.27700001 -0.0139528196 -0.00999996811 -0.27700001 -0.010125922 0.00382683426 0.00919971336 -0.0193647202 0.00120543316 0.0029097246 -0.0200530197 0.000614032149 0.00308973063 -0.0201071221 0.000614032149 0.00308973063 -0.0201071221 3.35368426e-08 0.00919971336 -0.02012592 0.00382683426 0.00919971336 -0.0193647202 0.00382683426 0.00919971336 -0.0193647202 0.00222743303 0.00222772826 -0.0198747199 0.00120543316 0.0029097246 -0.0200530197 0.00382683426 0.00919971336 -0.0193647202 0.0031500347 -2.63546582e-07 -0.0196169224 0.00308943167 0.000614737161 -0.0196367223 0.00382683426 -0.27700001 -0.0193647202 0.00308853388 -0.000619287603 -0.0196370203 0.0031500347 -2.63546582e-07 -0.0196169224 0.00382683426 -0.27700001 -0.0193647202 0.00291023403 -0.00120529067 -0.0196931195 0.00308853388 -0.000619287603 -0.0196370203 0.00382683426 -0.27700001 -0.0193647202 0.00222743303 -0.00222727191 -0.0198747199 0.00291023403 -0.00120529067 -0.0196931195 0.0031500347 -2.63546582e-07 -0.0196169224 0.00382683426 0.00919971336 -0.0193647202 0.00382683426 -0.27700001 -0.0193647202 0.00308943167 0.000614737161 -0.0196367223 0.00291023403 0.00120571721 -0.0196931195 0.00382683426 0.00919971336 -0.0193647202 0.00382683426 -0.27700001 -0.0193647202 3.35368426e-08 -0.27700001 -0.02012592 3.35368426e-08 -0.00315027963 -0.02012592 3.35368426e-08 -0.00315027963 -0.02012592 0.000616833568 -0.00308927428 -0.020106921 0.00382683426 -0.27700001 -0.0193647202 0.000616833568 -0.00308927428 -0.020106921 0.00120543316 -0.00291028153 -0.0200530197 0.00382683426 -0.27700001 -0.0193647202 0.00120543316 -0.00291028153 -0.0200530197 0.00222743303 -0.00222727191 -0.0198747199 0.00382683426 -0.27700001 -0.0193647202 0.00291023403 0.00120571721 -0.0196931195 0.00222743303 0.00222772826 -0.0198747199 0.00382683426 0.00919971336 -0.0193647202 3.35368426e-08 -0.27700001 -0.02012592 -0.00120546669 -0.00291028153 -0.0200530197 -0.000614065677 -0.00308927428 -0.0201071221 -0.00382686779 -0.27700001 -0.0193647202 -0.00222736597 -0.00222727191 -0.0198747199 -0.00120546669 -0.00291028153 -0.0200530197 -0.00120546669 -0.00291028153 -0.0200530197 3.35368426e-08 -0.27700001 -0.02012592 -0.00382686779 -0.27700001 -0.0193647202 -0.00382686779 0.00919971336 -0.0193647202 -0.00291026756 0.00120571721 -0.0196931195 -0.00308856741 0.000618730672 -0.0196370203 -0.00382686779 -0.27700001 -0.0193647202 -0.00382686779 0.00919971336 -0.0193647202 -0.00314996764 -2.63546582e-07 -0.0196169224 -0.00314996764 -2.63546582e-07 -0.0196169224 -0.0030894652 -0.000614280812 -0.0196367223 -0.00382686779 -0.27700001 -0.0193647202 -0.0030894652 -0.000614280812 -0.0196367223 -0.00291026756 -0.00120529067 -0.0196931195 -0.00382686779 -0.27700001 -0.0193647202 -0.00291026756 -0.00120529067 -0.0196931195 -0.00222736597 -0.00222727191 -0.0198747199 -0.00382686779 -0.27700001 -0.0193647202 -0.00308856741 0.000618730672 -0.0196370203 -0.00314996764 -2.63546582e-07 -0.0196169224 -0.00382686779 0.00919971336 -0.0193647202 -0.00382686779 0.00919971336 -0.0193647202 -0.00222736597 0.00222772826 -0.0198747199 -0.00291026756 0.00120571721 -0.0196931195 3.35368426e-08 0.00919971336 -0.02012592 3.35368426e-08 0.0031497227 -0.02012592 -0.000616867095 0.00308871735 -0.020106921 -0.000616867095 0.00308871735 -0.020106921 -0.00382686779 0.00919971336 -0.0193647202 3.35368426e-08 0.00919971336 -0.02012592 -0.000616867095 0.00308871735 -0.020106921 -0.00120546669 0.0029097246 -0.0200530197 -0.00382686779 0.00919971336 -0.0193647202 -0.00120546669 0.0029097246 -0.0200530197 -0.00222736597 0.00222772826 -0.0198747199 -0.00382686779 0.00919971336 -0.0193647202 3.35368426e-08 -0.27700001 -0.000125920356 0.00120543316 -0.00291028153 -0.000198921145 0.000616833568 -0.00308927428 -0.00014501992 0.00382683426 -0.27700001 -0.000887220667 0.00222743303 -0.00222727191 -0.000377220975 0.00120543316 -0.00291028153 -0.000198921145 0.00120543316 -0.00291028153 -0.000198921145 3.35368426e-08 -0.27700001 -0.000125920356 0.00382683426 -0.27700001 -0.000887220667 0.00382683426 0.00919971336 -0.000887220667 0.00291023403 0.00120571721 -0.000558821426 0.00308913365 0.000615720637 -0.000615119876 0.00382683426 -0.27700001 -0.000887220667 0.00382683426 0.00919971336 -0.000887220667 0.0031500347 -2.63546582e-07 -0.000635020377 0.0031500347 -2.63546582e-07 -0.000635020377 0.00308893248 -0.000617290847 -0.000615021156 0.00382683426 -0.27700001 -0.000887220667 0.00308893248 -0.000617290847 -0.000615021156 0.00291023403 -0.00120529067 -0.000558821426 0.00382683426 -0.27700001 -0.000887220667 0.00291023403 -0.00120529067 -0.000558821426 0.00222743303 -0.00222727191 -0.000377220975 0.00382683426 -0.27700001 -0.000887220667 0.00382683426 0.00919971336 -0.000887220667 0.00222743303 0.00222772826 -0.000377220975 0.00291023403 0.00120571721 -0.000558821426 3.35368426e-08 0.00919971336 -0.000125920356 3.35368426e-08 0.0031497227 -0.000125920356 0.00061693415 0.00308871735 -0.00014501992 0.00061693415 0.00308871735 -0.00014501992 0.00382683426 0.00919971336 -0.000887220667 3.35368426e-08 0.00919971336 -0.000125920356 0.00061693415 0.00308871735 -0.00014501992 0.00120543316 0.0029097246 -0.000198921145 0.00382683426 0.00919971336 -0.000887220667 0.00120543316 0.0029097246 -0.000198921145 0.00222743303 0.00222772826 -0.000377220975 0.00382683426 0.00919971336 -0.000887220667 0.00308913365 0.000615720637 -0.000615119876 0.0031500347 -2.63546582e-07 -0.000635020377 0.00382683426 0.00919971336 -0.000887220667 -0.00382686779 0.00919971336 -0.000887220667 -0.00120546669 0.0029097246 -0.000198921145 -0.000613767654 0.00308973063 -0.000144820617 -0.000613767654 0.00308973063 -0.000144820617 3.35368426e-08 0.00919971336 -0.000125920356 -0.00382686779 0.00919971336 -0.000887220667 -0.00382686779 0.00919971336 -0.000887220667 -0.00222736597 0.00222772826 -0.000377220975 -0.00120546669 0.0029097246 -0.000198921145 -0.00382686779 0.00919971336 -0.000887220667 -0.00314996764 -2.63546582e-07 -0.000635020377 -0.0030894652 0.000614737161 -0.000615119876 -0.0030894652 0.000614737161 -0.000615119876 -0.00291026756 0.00120571721 -0.000558821426 -0.00382686779 0.00919971336 -0.000887220667 -0.00382686779 -0.27700001 -0.000887220667 -0.0030894652 -0.000614280812 -0.000615119876 -0.00314996764 -2.63546582e-07 -0.000635020377 -0.00382686779 -0.27700001 -0.000887220667 -0.00291026756 -0.00120529067 -0.000558821426 -0.0030894652 -0.000614280812 -0.000615119876 -0.00382686779 -0.27700001 -0.000887220667 -0.00222736597 -0.00222727191 -0.000377220975 -0.00291026756 -0.00120529067 -0.000558821426 -0.00314996764 -2.63546582e-07 -0.000635020377 -0.00382686779 0.00919971336 -0.000887220667 -0.00382686779 -0.27700001 -0.000887220667 -0.00291026756 0.00120571721 -0.000558821426 -0.00222736597 0.00222772826 -0.000377220975 -0.00382686779 0.00919971336 -0.000887220667 -0.00382686779 -0.27700001 -0.000887220667 3.35368426e-08 -0.27700001 -0.000125920356 3.35368426e-08 -0.00315027963 -0.000125920356 3.35368426e-08 -0.00315027963 -0.000125920356 -0.000614065677 -0.00308927428 -0.000144820617 -0.00382686779 -0.27700001 -0.000887220667 -0.000614065677 -0.00308927428 -0.000144820617 -0.00120546669 -0.00291028153 -0.000198921145 -0.00382686779 -0.27700001 -0.000887220667 -0.00120546669 -0.00291028153 -0.000198921145 -0.00222736597 -0.00222727191 -0.000377220975 -0.00382686779 -0.27700001 -0.000887220667 -0.000613767654 0.00308973063 -0.000144820617 3.35368426e-08 0.0031497227 -0.000125920356 3.35368426e-08 0.00919971336 -0.000125920356 0.000616833568 -0.00308927428 -0.00014501992 3.35368426e-08 -0.00315027963 -0.000125920356 3.35368426e-08 -0.27700001 -0.000125920356 -0.000614065677 -0.00308927428 -0.0201071221 3.35368426e-08 -0.00315027963 -0.02012592 3.35368426e-08 -0.27700001 -0.02012592 0.000614032149 0.00308973063 -0.0201071221 3.35368426e-08 0.0031497227 -0.02012592 3.35368426e-08 0.00919971336 -0.02012592 -0.00999996811 -0.27700001 -0.010125922 -0.00999996811 0.00919971336 -0.010125922 -0.00923876837 0.00919971336 -0.0139528196 -0.00923876837 -0.27700001 -0.0139528196 -0.00923876837 0.00919971336 -0.0139528196 -0.00707106665 0.00919971336 -0.0171970222 -0.00707106665 -0.27700001 -0.0171970222 -0.00707106665 0.00919971336 -0.0171970222 -0.00382686779 0.00919971336 -0.0193647202 0.00382683426 -0.27700001 -0.0193647202 0.00382683426 0.00919971336 -0.0193647202 0.00707103685 0.00919971336 -0.0171970222 0.00707103685 -0.27700001 -0.0171970222 0.00707103685 0.00919971336 -0.0171970222 0.00923883542 0.00919971336 -0.0139528196 0.00923883542 -0.27700001 -0.0139528196 0.00923883542 0.00919971336 -0.0139528196 0.0100000314 0.00919971336 -0.010125922 0.0100000314 -0.27700001 -0.010125922 0.0100000314 0.00919971336 -0.010125922 0.00923883542 0.00919971336 -0.00629912131 0.00923883542 -0.27700001 -0.00629912131 0.00923883542 0.00919971336 -0.00629912131 0.00707103685 0.00919971336 -0.00305492058 0.00707103685 -0.27700001 -0.00305492058 0.00707103685 0.00919971336 -0.00305492058 0.00382683426 0.00919971336 -0.000887220667 -0.00382686779 -0.27700001 -0.000887220667 -0.00382686779 0.00919971336 -0.000887220667 -0.00707106665 0.00919971336 -0.00305492058 -0.00707106665 -0.27700001 -0.00305492058 -0.00707106665 0.00919971336 -0.00305492058 -0.00923876837 0.00919971336 -0.00629912131 -0.00923876837 -0.27700001 -0.00629912131 -0.00923876837 0.00919971336 -0.00629912131 -0.00999996811 0.00919971336 -0.010125922 3.35368426e-08 0.00919971336 -0.010125922 -0.00923876837 0.00919971336 -0.00629912131 -0.00707106665 0.00919971336 -0.00305492058 -0.00707106665 0.00919971336 -0.00305492058 -0.00382686779 0.00919971336 -0.000887220667 3.35368426e-08 0.00919971336 -0.010125922 -0.00382686779 0.00919971336 -0.000887220667 3.35368426e-08 0.00919971336 -0.000125920356 3.35368426e-08 0.00919971336 -0.010125922 3.35368426e-08 0.00919971336 -0.000125920356 0.00382683426 0.00919971336 -0.000887220667 3.35368426e-08 0.00919971336 -0.010125922 0.00382683426 0.00919971336 -0.000887220667 0.00707103685 0.00919971336 -0.00305492058 3.35368426e-08 0.00919971336 -0.010125922 0.00707103685 0.00919971336 -0.00305492058 0.00923883542 0.00919971336 -0.00629912131 3.35368426e-08 0.00919971336 -0.010125922 0.00923883542 0.00919971336 -0.00629912131 0.0100000314 0.00919971336 -0.010125922 3.35368426e-08 0.00919971336 -0.010125922 0.0100000314 0.00919971336 -0.010125922 0.00923883542 0.00919971336 -0.0139528196 3.35368426e-08 0.00919971336 -0.010125922 0.00923883542 0.00919971336 -0.0139528196 0.00707103685 0.00919971336 -0.0171970222 3.35368426e-08 0.00919971336 -0.010125922 0.00707103685 0.00919971336 -0.0171970222 0.00382683426 0.00919971336 -0.0193647202 3.35368426e-08 0.00919971336 -0.010125922 0.00382683426 0.00919971336 -0.0193647202 3.35368426e-08 0.00919971336 -0.02012592 3.35368426e-08 0.00919971336 -0.010125922 3.35368426e-08 0.00919971336 -0.02012592 -0.00382686779 0.00919971336 -0.0193647202 3.35368426e-08 0.00919971336 -0.010125922 -0.00382686779 0.00919971336 -0.0193647202 -0.00707106665 0.00919971336 -0.0171970222 3.35368426e-08 0.00919971336 -0.010125922 -0.00707106665 0.00919971336 -0.0171970222 -0.00923876837 0.00919971336 -0.0139528196 3.35368426e-08 0.00919971336 -0.010125922 -0.00923876837 0.00919971336 -0.0139528196 -0.00999996811 0.00919971336 -0.010125922 3.35368426e-08 0.00919971336 -0.010125922 -0.00999996811 0.00919971336 -0.010125922 -0.00923876837 0.00919971336 -0.00629912131 3.35368426e-08 0.00919971336 -0.010125922 -0.0030894652 0.000614737161 -0.000615119876 -0.00314996764 -2.63546582e-07 -0.000635020377 -0.00314996764 -2.63546582e-07 -0.0196169224 -0.00314996764 -2.63546582e-07 -0.0196169224 -0.00308856741 0.000618730672 -0.0196370203 -0.0030894652 0.000614737161 -0.000615119876 -0.00291026756 0.00120571721 -0.0196931195 -0.00291026756 0.00120571721 -0.000558821426 -0.0030894652 0.000614737161 -0.000615119876 -0.00222736597 0.00222772826 -0.000377220975 -0.00291026756 0.00120571721 -0.000558821426 -0.00291026756 0.00120571721 -0.0196931195 -0.00120546669 0.0029097246 -0.000198921145 -0.00222736597 0.00222772826 -0.000377220975 -0.00222736597 0.00222772826 -0.0198747199 -0.000613767654 0.00308973063 -0.000144820617 -0.00120546669 0.0029097246 -0.000198921145 -0.00120546669 0.0029097246 -0.0200530197 -0.000616867095 0.00308871735 -0.020106921 3.35368426e-08 0.0031497227 -0.000125920356 -0.000613767654 0.00308973063 -0.000144820617 -0.00120546669 0.0029097246 -0.0200530197 -0.000616867095 0.00308871735 -0.020106921 -0.000613767654 0.00308973063 -0.000144820617 0.000614032149 0.00308973063 -0.0201071221 0.00120543316 0.0029097246 -0.0200530197 0.00120543316 0.0029097246 -0.000198921145 0.00061693415 0.00308871735 -0.00014501992 3.35368426e-08 0.0031497227 -0.02012592 0.000614032149 0.00308973063 -0.0201071221 0.00120543316 0.0029097246 -0.000198921145 0.00061693415 0.00308871735 -0.00014501992 0.000614032149 0.00308973063 -0.0201071221 0.00120543316 0.0029097246 -0.000198921145 0.00120543316 0.0029097246 -0.0200530197 0.00222743303 0.00222772826 -0.0198747199 0.00222743303 0.00222772826 -0.0198747199 0.00291023403 0.00120571721 -0.0196931195 0.00291023403 0.00120571721 -0.000558821426 0.00308943167 0.000614737161 -0.0196367223 0.0031500347 -2.63546582e-07 -0.0196169224 0.0031500347 -2.63546582e-07 -0.000635020377 0.0031500347 -2.63546582e-07 -0.000635020377 0.00308913365 0.000615720637 -0.000615119876 0.00308943167 0.000614737161 -0.0196367223 0.00291023403 0.00120571721 -0.000558821426 0.00291023403 0.00120571721 -0.0196931195 0.00308943167 0.000614737161 -0.0196367223 0.00308893248 -0.000617290847 -0.000615021156 0.0031500347 -2.63546582e-07 -0.000635020377 0.0031500347 -2.63546582e-07 -0.0196169224 0.0031500347 -2.63546582e-07 -0.0196169224 0.00308853388 -0.000619287603 -0.0196370203 0.00308893248 -0.000617290847 -0.000615021156 0.00291023403 -0.00120529067 -0.0196931195 0.00291023403 -0.00120529067 -0.000558821426 0.00308893248 -0.000617290847 -0.000615021156 0.00222743303 -0.00222727191 -0.0198747199 0.00222743303 -0.00222727191 -0.000377220975 0.00291023403 -0.00120529067 -0.000558821426 0.00120543316 -0.00291028153 -0.0200530197 0.00120543316 -0.00291028153 -0.000198921145 0.00222743303 -0.00222727191 -0.000377220975 0.000616833568 -0.00308927428 -0.00014501992 0.00120543316 -0.00291028153 -0.000198921145 0.00120543316 -0.00291028153 -0.0200530197 0.00120543316 -0.00291028153 -0.0200530197 0.000616833568 -0.00308927428 -0.020106921 0.000616833568 -0.00308927428 -0.00014501992 3.35368426e-08 -0.00315027963 -0.02012592 3.35368426e-08 -0.00315027963 -0.000125920356 0.000616833568 -0.00308927428 -0.00014501992 -0.000614065677 -0.00308927428 -0.0201071221 -0.00120546669 -0.00291028153 -0.0200530197 -0.00120546669 -0.00291028153 -0.000198921145 -0.00120546669 -0.00291028153 -0.000198921145 -0.000614065677 -0.00308927428 -0.000144820617 -0.000614065677 -0.00308927428 -0.0201071221 3.35368426e-08 -0.00315027963 -0.000125920356 3.35368426e-08 -0.00315027963 -0.02012592 -0.000614065677 -0.00308927428 -0.0201071221 -0.00120546669 -0.00291028153 -0.000198921145 -0.00120546669 -0.00291028153 -0.0200530197 -0.00222736597 -0.00222727191 -0.0198747199 -0.00222736597 -0.00222727191 -0.0198747199 -0.00291026756 -0.00120529067 -0.0196931195 -0.00291026756 -0.00120529067 -0.000558821426 -0.0030894652 -0.000614280812 -0.0196367223 -0.00314996764 -2.63546582e-07 -0.0196169224 -0.00314996764 -2.63546582e-07 -0.000635020377 -0.00314996764 -2.63546582e-07 -0.000635020377 -0.0030894652 -0.000614280812 -0.000615119876 -0.0030894652 -0.000614280812 -0.0196367223 -0.00291026756 -0.00120529067 -0.000558821426 -0.00291026756 -0.00120529067 -0.0196931195 -0.0030894652 -0.000614280812 -0.0196367223 -0.0030894652 -0.000614280812 -0.000615119876 -0.00291026756 -0.00120529067 -0.000558821426 -0.0030894652 -0.000614280812 -0.0196367223 -0.00291026756 -0.00120529067 -0.000558821426 -0.00222736597 -0.00222727191 -0.000377220975 -0.00222736597 -0.00222727191 -0.0198747199 -0.00222736597 -0.00222727191 -0.0198747199 -0.00222736597 -0.00222727191 -0.000377220975 -0.00120546669 -0.00291028153 -0.000198921145 -0.000614065677 -0.00308927428 -0.000144820617 3.35368426e-08 -0.00315027963 -0.000125920356 -0.000614065677 -0.00308927428 -0.0201071221 0.000616833568 -0.00308927428 -0.020106921 3.35368426e-08 -0.00315027963 -0.02012592 0.000616833568 -0.00308927428 -0.00014501992 0.00222743303 -0.00222727191 -0.000377220975 0.00222743303 -0.00222727191 -0.0198747199 0.00120543316 -0.00291028153 -0.0200530197 0.00291023403 -0.00120529067 -0.000558821426 0.00291023403 -0.00120529067 -0.0196931195 0.00222743303 -0.00222727191 -0.0198747199 0.00308853388 -0.000619287603 -0.0196370203 0.00291023403 -0.00120529067 -0.0196931195 0.00308893248 -0.000617290847 -0.000615021156 0.00308913365 0.000615720637 -0.000615119876 0.00291023403 0.00120571721 -0.000558821426 0.00308943167 0.000614737161 -0.0196367223 0.00291023403 0.00120571721 -0.000558821426 0.00222743303 0.00222772826 -0.000377220975 0.00222743303 0.00222772826 -0.0198747199 0.00222743303 0.00222772826 -0.0198747199 0.00222743303 0.00222772826 -0.000377220975 0.00120543316 0.0029097246 -0.000198921145 0.00061693415 0.00308871735 -0.00014501992 3.35368426e-08 0.0031497227 -0.000125920356 3.35368426e-08 0.0031497227 -0.02012592 -0.000616867095 0.00308871735 -0.020106921 3.35368426e-08 0.0031497227 -0.02012592 3.35368426e-08 0.0031497227 -0.000125920356 -0.00222736597 0.00222772826 -0.0198747199 -0.00120546669 0.0029097246 -0.0200530197 -0.00120546669 0.0029097246 -0.000198921145 -0.00291026756 0.00120571721 -0.0196931195 -0.00222736597 0.00222772826 -0.0198747199 -0.00222736597 0.00222772826 -0.000377220975 -0.00308856741 0.000618730672 -0.0196370203 -0.00291026756 0.00120571721 -0.0196931195 -0.0030894652 0.000614737161 -0.000615119876 </float_array>
          <technique_common>
            <accessor count="492" offset="0" source="#mesh_0-positions-array" stride="3">
              <param name="X" type="float" />
              <param name="Y" type="float" />
              <param name="Z" type="float" />
            </accessor>
          </technique_common>
        </source>
        <source id="mesh_0-normals" name="mesh_0-normals">
          <float_array id="mesh_0-normals-array" count="1476"> 0 -3.82681174e-05 0 0 -3.82681174e-05 0 0 -3.82681174e-05 0 0 -3.82680664e-05 0 0 -3.82680664e-05 0 0 -3.82680664e-05 0 0 -3.8269005e-05 0 0 -3.8269005e-05 0 0 -3.8269005e-05 0 0 -3.82680009e-05 0 0 -3.82680009e-05 0 0 -3.82680009e-05 0 0 -3.82678809e-05 0 0 -3.82678809e-05 0 0 -3.82678809e-05 0 0 -3.82684884e-05 0 0 -3.82684884e-05 0 0 -3.82684884e-05 0 0 -3.82689686e-05 0 0 -3.82689686e-05 0 0 -3.82689686e-05 0 0 -3.82680009e-05 0 0 -3.82680009e-05 0 0 -3.82680009e-05 0 -0 -3.82682592e-05 0 -0 -3.82682592e-05 0 -0 -3.82682592e-05 0 -0 -3.82675717e-05 0 -0 -3.82675717e-05 0 -0 -3.82675717e-05 0 -0 -3.82680118e-05 0 -0 -3.82680118e-05 0 -0 -3.82680118e-05 0 0 -3.82690196e-05 -0 0 -3.82690196e-05 -0 0 -3.82690196e-05 -0 0 -3.82677572e-05 -0 0 -3.82677572e-05 -0 0 -3.82677572e-05 -0 0 -3.82678918e-05 -0 0 -3.82678918e-05 -0 0 -3.82678918e-05 -0 0 -3.82680118e-05 -0 0 -3.82680118e-05 -0 0 -3.82680118e-05 -0 0 -3.82689832e-05 0 0 -3.82689832e-05 0 0 -3.82689832e-05 0 -0.00109522929 0 0.000217855151 -0.00109522929 0 0.000217855151 -0.00109522929 0 0.000217855151 -0.000928489317 0 0.000620395644 -0.000928489317 0 0.000620395644 -0.000928489317 0 0.000620395644 -0.000620395062 0 0.000928488793 -0.000620395062 0 0.000928488793 -0.000620395062 0 0.000928488793 0.000620395062 0 0.000928489841 0.000620395062 0 0.000928489841 0.000620395062 0 0.000928489841 0.000928489317 0 0.00062042335 0.000928489317 0 0.00062042335 0.000928489317 0 0.00062042335 0.00109522929 0 0.000217854089 0.00109522929 0 0.000217854089 0.00109522929 0 0.000217854089 0.001095257 0 -0.000217854089 0.001095257 0 -0.000217854089 0.001095257 0 -0.000217854089 0.000928489841 0 -0.00062042335 0.000928489841 0 -0.00062042335 0.000928489841 0 -0.00062042335 0.000620394538 0 -0.000928489841 0.000620394538 0 -0.000928489841 0.000620394538 0 -0.000928489841 -0.000620394538 -0 -0.000928488793 -0.000620394538 -0 -0.000928488793 -0.000620394538 -0 -0.000928488793 -0.000928489841 -0 -0.000620395644 -0.000928489841 -0 -0.000620395644 -0.000928489841 -0 -0.000620395644 -0.001095257 -0 -0.000217855151 -0.001095257 -0 -0.000217855151 -0.001095257 -0 -0.000217855151 4.64201094e-07 2.65237077e-07 -4.19177377e-06 4.64201094e-07 2.65237077e-07 -4.19177377e-06 4.64201094e-07 2.65237077e-07 -4.19177377e-06 4.65091716e-06 3.95440111e-07 -2.33816863e-05 4.65091716e-06 3.95440111e-07 -2.33816863e-05 4.65091716e-06 3.95440111e-07 -2.33816863e-05 1.59092178e-06 2.36046617e-07 -8.21615322e-06 1.59092178e-06 2.36046617e-07 -8.21615322e-06 1.59092178e-06 2.36046617e-07 -8.21615322e-06 3.37263373e-07 1.88363458e-09 -9.73778697e-07 3.37263373e-07 1.88363458e-09 -9.73778697e-07 3.37263373e-07 1.88363458e-09 -9.73778697e-07 5.72324643e-06 -1.90836147e-09 -1.74546731e-05 5.72324643e-06 -1.90836147e-09 -1.74546731e-05 5.72324643e-06 -1.90836147e-09 -1.74546731e-05 1.56642927e-05 -7.13305326e-09 -4.97112778e-05 1.56642927e-05 -7.13305326e-09 -4.97112778e-05 1.56642927e-05 -7.13305326e-09 -4.97112778e-05 5.0420058e-05 -5.77763331e-08 -0.000189249666 5.0420058e-05 -5.77763331e-08 -0.000189249666 5.0420058e-05 -5.77763331e-08 -0.000189249666 7.21801844e-05 0 -0.000193699845 7.21801844e-05 0 -0.000193699845 7.21801844e-05 0 -0.000193699845 6.44916156e-07 7.1547106e-09 -1.97419763e-06 6.44916156e-07 7.1547106e-09 -1.97419763e-06 6.44916156e-07 7.1547106e-09 -1.97419763e-06 0.000208454338 0 -0.00104796828 0.000208454338 0 -0.00104796828 0.000208454338 0 -0.00104796828 5.24930283e-06 -3.96802704e-07 -0.000169143983 5.24930283e-06 -3.96802704e-07 -0.000169143983 5.24930283e-06 -3.96802704e-07 -0.000169143983 1.4896973e-05 -2.63836114e-07 -0.000161798307 1.4896973e-05 -2.63836114e-07 -0.000161798307 1.4896973e-05 -2.63836114e-07 -0.000161798307 4.93402695e-05 -2.36046617e-07 -0.000281910092 4.93402695e-05 -2.36046617e-07 -0.000281910092 4.93402695e-05 -2.36046617e-07 -0.000281910092 1.78734092e-06 5.77763188e-08 -6.39508426e-06 1.78734092e-06 5.77763188e-08 -6.39508426e-06 1.78734092e-06 5.77763188e-08 -6.39508426e-06 -1.48158615e-05 -2.2107189e-08 -0.00016188118 -1.48158615e-05 -2.2107189e-08 -0.00016188118 -1.48158615e-05 -2.2107189e-08 -0.00016188118 -4.93402767e-05 -2.35977382e-07 -0.000281882531 -4.93402767e-05 -2.35977382e-07 -0.000281882531 -4.93402767e-05 -2.35977382e-07 -0.000281882531 -0.000208637022 -6.38644565e-07 -0.00104891439 -0.000208637022 -6.38644565e-07 -0.00104891439 -0.000208637022 -6.38644565e-07 -0.00104891439 -6.41222186e-07 7.13305326e-09 -1.96336077e-06 -6.41222186e-07 7.13305326e-09 -1.96336077e-06 -6.41222186e-07 7.13305326e-09 -1.96336077e-06 -7.21801844e-05 0 -0.000193728629 -7.21801844e-05 0 -0.000193728629 -7.21801844e-05 0 -0.000193728629 -5.63942876e-06 -1.8562778e-09 -1.71747888e-05 -5.63942876e-06 -1.8562778e-09 -1.71747888e-05 -5.63942876e-06 -1.8562778e-09 -1.71747888e-05 -1.57481281e-05 -7.1547106e-09 -4.99634807e-05 -1.57481281e-05 -7.1547106e-09 -4.99634807e-05 -1.57481281e-05 -7.1547106e-09 -4.99634807e-05 -5.04200616e-05 -5.78093591e-08 -0.000189277402 -5.04200616e-05 -5.78093591e-08 -0.000189277402 -5.04200616e-05 -5.78093591e-08 -0.000189277402 -3.41012282e-07 1.88097182e-09 -9.83878067e-07 -3.41012282e-07 1.88097182e-09 -9.83878067e-07 -3.41012282e-07 1.88097182e-09 -9.83878067e-07 -1.78734081e-06 5.78093591e-08 -6.39588825e-06 -1.78734081e-06 5.78093591e-08 -6.39588825e-06 -1.78734081e-06 5.78093591e-08 -6.39588825e-06 -1.14943653e-07 -0 -3.73224293e-06 -1.14943653e-07 -0 -3.73224293e-06 -1.14943653e-07 -0 -3.73224293e-06 -4.65168887e-06 3.96877368e-07 -2.33861792e-05 -4.65168887e-06 3.96877368e-07 -2.33861792e-05 -4.65168887e-06 3.96877368e-07 -2.33861792e-05 -4.62238717e-07 2.63836114e-07 -4.17149658e-06 -4.62238717e-07 2.63836114e-07 -4.17149658e-06 -4.62238717e-07 2.63836114e-07 -4.17149658e-06 -1.59092178e-06 2.35977382e-07 -8.21552112e-06 -1.59092178e-06 2.35977382e-07 -8.21552112e-06 -1.59092178e-06 2.35977382e-07 -8.21552112e-06 1.47607052e-05 -2.20042846e-08 0.000161113348 1.47607052e-05 -2.20042846e-08 0.000161113348 1.47607052e-05 -2.20042846e-08 0.000161113348 4.93402767e-05 -2.36046617e-07 0.000281910092 4.93402767e-05 -2.36046617e-07 0.000281910092 4.93402767e-05 -2.36046617e-07 0.000281910092 0.000208664598 -6.3831169e-07 0.0010488868 0.000208664598 -6.3831169e-07 0.0010488868 0.000208664598 -6.3831169e-07 0.0010488868 6.43804015e-07 7.14732096e-09 1.97091367e-06 6.43804015e-07 7.14732096e-09 1.97091367e-06 6.43804015e-07 7.14732096e-09 1.97091367e-06 7.21796532e-05 -0 0.000193699845 7.21796532e-05 -0 0.000193699845 7.21796532e-05 -0 0.000193699845 5.69539361e-06 -1.87453075e-09 1.73428998e-05 5.69539361e-06 -1.87453075e-09 1.73428998e-05 5.69539361e-06 -1.87453075e-09 1.73428998e-05 1.56926872e-05 -7.17174942e-09 4.98230511e-05 1.56926872e-05 -7.17174942e-09 4.98230511e-05 1.56926872e-05 -7.17174942e-09 4.98230511e-05 5.04200616e-05 -5.77763188e-08 0.000189249666 5.04200616e-05 -5.77763188e-08 0.000189249666 5.04200616e-05 -5.77763188e-08 0.000189249666 1.78734081e-06 5.77763331e-08 6.39508426e-06 1.78734081e-06 5.77763331e-08 6.39508426e-06 1.78734081e-06 5.77763331e-08 6.39508426e-06 1.15552183e-07 0 3.73224293e-06 1.15552183e-07 0 3.73224293e-06 1.15552183e-07 0 3.73224293e-06 4.65230323e-06 3.96556402e-07 2.33855644e-05 4.65230323e-06 3.96556402e-07 2.33855644e-05 4.65230323e-06 3.96556402e-07 2.33855644e-05 4.62238717e-07 2.6376685e-07 4.17086403e-06 4.62238717e-07 2.6376685e-07 4.17086403e-06 4.62238717e-07 2.6376685e-07 4.17086403e-06 1.59092167e-06 2.36046645e-07 8.21615322e-06 1.59092167e-06 2.36046645e-07 8.21615322e-06 1.59092167e-06 2.36046645e-07 8.21615322e-06 3.38435541e-07 1.89061122e-09 9.77186119e-07 3.38435541e-07 1.89061122e-09 9.77186119e-07 3.38435541e-07 1.89061122e-09 9.77186119e-07 -4.64189725e-07 2.65446943e-07 4.19364915e-06 -4.64189725e-07 2.65446943e-07 4.19364915e-06 -4.64189725e-07 2.65446943e-07 4.19364915e-06 -4.65153198e-06 3.94957596e-07 2.33823012e-05 -4.65153198e-06 3.94957596e-07 2.33823012e-05 -4.65153198e-06 3.94957596e-07 2.33823012e-05 -1.59092178e-06 2.35977382e-07 8.21552021e-06 -1.59092178e-06 2.35977382e-07 8.21552021e-06 -1.59092178e-06 2.35977382e-07 8.21552021e-06 -3.38187419e-07 1.78808079e-09 9.72915132e-07 -3.38187419e-07 1.78808079e-09 9.72915132e-07 -3.38187419e-07 1.78808079e-09 9.72915132e-07 -6.44126999e-07 7.24519822e-09 1.97419763e-06 -6.44126999e-07 7.24519822e-09 1.97419763e-06 -6.44126999e-07 7.24519822e-09 1.97419763e-06 -5.66728704e-06 -1.78808079e-09 1.71747961e-05 -5.66728704e-06 -1.78808079e-09 1.71747961e-05 -5.66728704e-06 -1.78808079e-09 1.71747961e-05 -1.5720907e-05 -7.2451769e-09 4.99634916e-05 -1.5720907e-05 -7.2451769e-09 4.99634916e-05 -1.5720907e-05 -7.2451769e-09 4.99634916e-05 -5.0420058e-05 -5.78093591e-08 0.000189277402 -5.0420058e-05 -5.78093591e-08 0.000189277402 -5.0420058e-05 -5.78093591e-08 0.000189277402 -7.21796532e-05 0 0.000193728629 -7.21796532e-05 0 0.000193728629 -7.21796532e-05 0 0.000193728629 -1.78734092e-06 5.78093591e-08 6.39588825e-06 -1.78734092e-06 5.78093591e-08 6.39588825e-06 -1.78734092e-06 5.78093591e-08 6.39588825e-06 -0.000208481884 0 0.00104799587 -0.000208481884 0 0.00104799587 -0.000208481884 0 0.00104799587 -5.22227447e-06 -3.95184486e-07 0.000168404353 -5.22227447e-06 -3.95184486e-07 0.000168404353 -5.22227447e-06 -3.95184486e-07 0.000168404353 -1.49516e-05 -2.65241852e-07 0.000162566139 -1.49516e-05 -2.65241852e-07 0.000162566139 -1.49516e-05 -2.65241852e-07 0.000162566139 -4.93402658e-05 -2.3597741e-07 0.000281882531 -4.93402658e-05 -2.3597741e-07 0.000281882531 -4.93402658e-05 -2.3597741e-07 0.000281882531 -1.14346399e-07 0 3.71349142e-06 -1.14346399e-07 0 3.71349142e-06 -1.14346399e-07 0 3.71349142e-06 5.23041035e-06 0 0.000168910512 5.23041035e-06 0 0.000168910512 5.23041035e-06 0 0.000168910512 -5.14777639e-06 0 -0.000168170911 -5.14777639e-06 0 -0.000168170911 -5.14777639e-06 0 -0.000168170911 1.13726607e-07 0 -3.71468604e-06 1.13726607e-07 0 -3.71468604e-06 1.13726607e-07 0 -3.71468604e-06 -0.001095257 0 -0.000217855151 -0.001095257 0 -0.000217855151 -0.001095257 0 -0.000217855151 -0.000928489841 0 -0.000620395644 -0.000928489841 0 -0.000620395644 -0.000928489841 0 -0.000620395644 -0.000620394538 0 -0.000928488793 -0.000620394538 0 -0.000928488793 -0.000620394538 0 -0.000928488793 0.000620394538 0 -0.000928489841 0.000620394538 0 -0.000928489841 0.000620394538 0 -0.000928489841 0.000928489841 0 -0.00062042335 0.000928489841 0 -0.00062042335 0.000928489841 0 -0.00062042335 0.001095257 0 -0.000217854089 0.001095257 0 -0.000217854089 0.001095257 0 -0.000217854089 0.00109522929 -0 0.000217854089 0.00109522929 -0 0.000217854089 0.00109522929 -0 0.000217854089 0.000928489317 -0 0.00062042335 0.000928489317 -0 0.00062042335 0.000928489317 -0 0.00062042335 0.000620395062 -0 0.000928489841 0.000620395062 -0 0.000928489841 0.000620395062 -0 0.000928489841 -0.000620395062 0 0.000928488793 -0.000620395062 0 0.000928488793 -0.000620395062 0 0.000928488793 -0.000928489317 0 0.000620395644 -0.000928489317 0 0.000620395644 -0.000928489317 0 0.000620395644 -0.00109522929 0 0.000217855151 -0.00109522929 0 0.000217855151 -0.00109522929 0 0.000217855151 0 3.82678845e-05 0 0 3.82678845e-05 0 0 3.82678845e-05 0 -0 3.82677608e-05 0 -0 3.82677608e-05 0 -0 3.82677608e-05 0 -0 3.82690196e-05 0 -0 3.82690196e-05 0 -0 3.82690196e-05 0 0 3.82680118e-05 0 0 3.82680118e-05 0 0 3.82680118e-05 0 0 3.82675717e-05 0 0 3.82675717e-05 0 0 3.82675717e-05 0 0 3.82682629e-05 0 0 3.82682629e-05 0 0 3.82682629e-05 0 0 3.82679973e-05 0 0 3.82679973e-05 0 0 3.82679973e-05 0 0 3.82689686e-05 0 0 3.82689686e-05 0 0 3.82689686e-05 0 0 3.82684884e-05 0 0 3.82684884e-05 0 0 3.82684884e-05 0 0 3.82678809e-05 0 0 3.82678809e-05 0 0 3.82678809e-05 0 0 3.82679973e-05 0 0 3.82679973e-05 0 0 3.82679973e-05 0 0 3.8269005e-05 -0 0 3.8269005e-05 -0 0 3.8269005e-05 -0 0 3.82680664e-05 -0 0 3.82680664e-05 -0 0 3.82680664e-05 -0 0 3.82681174e-05 -0 0 3.82681174e-05 -0 0 3.82681174e-05 -0 0 3.82689832e-05 -0 0 3.82689832e-05 -0 0 3.82689832e-05 -0 0 3.82680118e-05 0 0 3.82680118e-05 0 0 3.82680118e-05 0 1.16738829e-05 -1.14845136e-06 0 1.16738829e-05 -1.14845136e-06 0 1.16738829e-05 -1.14845136e-06 0 1.17743666e-05 -1.16793115e-06 3.10528492e-10 1.17743666e-05 -1.16793115e-06 3.10528492e-10 1.17743666e-05 -1.16793115e-06 3.10528492e-10 1.13079886e-05 -3.42882095e-06 0 1.13079886e-05 -3.42882095e-06 0 1.13079886e-05 -3.42882095e-06 0 1.9555464e-05 -1.30668423e-05 0 1.9555464e-05 -1.30668423e-05 0 1.9555464e-05 -1.30668423e-05 0 1.32972236e-05 -1.99244805e-05 0 1.32972236e-05 -1.99244805e-05 0 1.32972236e-05 -1.99244805e-05 0 3.57385738e-06 -1.17476511e-05 0 3.57385738e-06 -1.17476511e-05 0 3.57385738e-06 -1.17476511e-05 0 1.19754861e-06 -1.22527017e-05 4.36009895e-10 1.19754861e-06 -1.22527017e-05 4.36009895e-10 1.19754861e-06 -1.22527017e-05 4.36009895e-10 3.5731257e-06 -1.17498512e-05 4.16378043e-11 3.5731257e-06 -1.17498512e-05 4.16378043e-11 3.5731257e-06 -1.17498512e-05 4.16378043e-11 -3.57385738e-06 -1.17417339e-05 0 -3.57385738e-06 -1.17417339e-05 0 -3.57385738e-06 -1.17417339e-05 0 -1.19754884e-06 -1.2256648e-05 -4.48054815e-10 -1.19754884e-06 -1.2256648e-05 -4.48054815e-10 -1.19754884e-06 -1.2256648e-05 -4.48054815e-10 -3.57312615e-06 -1.1747833e-05 -7.68736186e-11 -3.57312615e-06 -1.1747833e-05 -7.68736186e-11 -3.57312615e-06 -1.1747833e-05 -7.68736186e-11 -1.35404225e-05 -2.02908868e-05 -0 -1.35404225e-05 -2.02908868e-05 -0 -1.35404225e-05 -2.02908868e-05 -0 -1.9555464e-05 -1.30649178e-05 0 -1.9555464e-05 -1.30649178e-05 0 -1.9555464e-05 -1.30649178e-05 0 -1.16738829e-05 -1.15036062e-06 0 -1.16738829e-05 -1.15036062e-06 0 -1.16738829e-05 -1.15036062e-06 0 -1.17169875e-05 -1.15842954e-06 -1.23680621e-10 -1.17169875e-05 -1.15842954e-06 -1.23680621e-10 -1.17169875e-05 -1.15842954e-06 -1.23680621e-10 -1.13079886e-05 -3.42882095e-06 -0 -1.13079886e-05 -3.42882095e-06 -0 -1.13079886e-05 -3.42882095e-06 -0 -1.17123518e-05 1.15983619e-06 0 -1.17123518e-05 1.15983619e-06 0 -1.17123518e-05 1.15983619e-06 0 -1.17750342e-05 1.16986052e-06 1.23943522e-10 -1.17750342e-05 1.16986052e-06 1.23943522e-10 -1.17750342e-05 1.16986052e-06 1.23943522e-10 -1.12509633e-05 3.41926943e-06 0 -1.12509633e-05 3.41926943e-06 0 -1.12509633e-05 3.41926943e-06 0 -1.99260776e-05 1.33129115e-05 0 -1.99260776e-05 1.33129115e-05 0 -1.99260776e-05 1.33129115e-05 0 -1.35605405e-05 2.02908868e-05 0 -1.35605405e-05 2.02908868e-05 0 -1.35605405e-05 2.02908868e-05 0 -3.55373959e-06 1.16861147e-05 0 -3.55373959e-06 1.16861147e-05 0 -3.55373959e-06 1.16861147e-05 0 -3.57303543e-06 1.17495665e-05 0 -3.57303543e-06 1.17495665e-05 0 -3.57303543e-06 1.17495665e-05 0 -1.22010704e-06 1.23360005e-05 0 -1.22010704e-06 1.23360005e-05 0 -1.22010704e-06 1.23360005e-05 0 3.55373982e-06 1.17417339e-05 0 3.55373982e-06 1.17417339e-05 0 3.55373982e-06 1.17417339e-05 0 3.57310728e-06 1.18057251e-05 0 3.57310728e-06 1.18057251e-05 0 3.57310728e-06 1.18057251e-05 0 1.22010704e-06 1.22819838e-05 0 1.22010704e-06 1.22819838e-05 0 1.22010704e-06 1.22819838e-05 0 1.35605405e-05 2.02888896e-05 0 1.35605405e-05 2.02888896e-05 0 1.35605405e-05 2.02888896e-05 0 1.95548946e-05 1.30668423e-05 0 1.95548946e-05 1.30668423e-05 0 1.95548946e-05 1.30668423e-05 0 1.16552155e-05 1.14845136e-06 0 1.16552155e-05 1.14845136e-06 0 1.16552155e-05 1.14845136e-06 0 1.16795918e-05 1.15085334e-06 0 1.16795918e-05 1.15085334e-06 0 1.16795918e-05 1.15085334e-06 0 1.13085589e-05 3.42882095e-06 0 1.13085589e-05 3.42882095e-06 0 1.13085589e-05 3.42882095e-06 0 1.12419548e-05 3.4086263e-06 0 1.12419548e-05 3.4086263e-06 0 1.12419548e-05 3.4086263e-06 0 1.99260776e-05 1.33148724e-05 0 1.99260776e-05 1.33148724e-05 0 1.99260776e-05 1.33148724e-05 0 1.33169797e-05 1.99244805e-05 -0 1.33169797e-05 1.99244805e-05 -0 1.33169797e-05 1.99244805e-05 -0 1.21780727e-06 1.22588335e-05 0 1.21780727e-06 1.22588335e-05 0 1.21780727e-06 1.22588335e-05 0 -1.21778282e-06 1.2312501e-05 0 -1.21778282e-06 1.2312501e-05 0 -1.21778282e-06 1.2312501e-05 0 -1.33169797e-05 1.99264414e-05 0 -1.33169797e-05 1.99264414e-05 0 -1.33169797e-05 1.99264414e-05 0 -1.95548928e-05 1.30649178e-05 0 -1.95548928e-05 1.30649178e-05 0 -1.95548928e-05 1.30649178e-05 0 -1.1146838e-05 3.39159715e-06 -1.22436838e-10 -1.1146838e-05 3.39159715e-06 -1.22436838e-10 -1.1146838e-05 3.39159715e-06 -1.22436838e-10 -1.12226244e-05 -3.40294059e-06 1.1091128e-13 -1.12226244e-05 -3.40294059e-06 1.1091128e-13 -1.12226244e-05 -3.40294059e-06 1.1091128e-13 -1.99266578e-05 -1.33129115e-05 0 -1.99266578e-05 -1.33129115e-05 0 -1.99266578e-05 -1.33129115e-05 0 -1.32972227e-05 -1.99264414e-05 0 -1.32972227e-05 -1.99264414e-05 0 -1.32972227e-05 -1.99264414e-05 0 -1.22010704e-06 -1.23380123e-05 0 -1.22010704e-06 -1.23380123e-05 0 -1.22010704e-06 -1.23380123e-05 0 1.22010704e-06 -1.23380123e-05 0 1.22010704e-06 -1.23380123e-05 0 1.22010704e-06 -1.23380123e-05 0 1.35404225e-05 -2.02888896e-05 0 1.35404225e-05 -2.02888896e-05 0 1.35404225e-05 -2.02888896e-05 0 1.99266578e-05 -1.33148724e-05 0 1.99266578e-05 -1.33148724e-05 0 1.99266578e-05 -1.33148724e-05 0 1.11653753e-05 -3.39155145e-06 -1.85048865e-10 1.11653753e-05 -3.39155145e-06 -1.85048865e-10 1.11653753e-05 -3.39155145e-06 -1.85048865e-10 </float_array>
          <technique_common>
            <accessor count="492" offset="0" source="#mesh_0-normals-array" stride="3">
              <param name="X" type="float" />
              <param name="Y" type="float" />
              <param name="Z" type="float" />
            </accessor>
          </technique_common>
        </source>
        <vertices id="mesh_0-vertices">
          <input semantic="POSITION" source="#mesh_0-positions" />
        </vertices>
        <polylist count="164" material="defaultMaterial">
          <input offset="0" semantic="VERTEX" source="#mesh_0-vertices" />
          <input offset="1" semantic="NORMAL" source="#mesh_0-normals" />
          <vcount>3 3 3 3 3 3 3 3 3 3 3 3 3 3 3 3 3 3 3 3 3 3 3 3 3 3 3 3 3 3 3 3 3 3 3 3 3 3 3 3 3 3 3 3 3 3 3 3 3 3 3 3 3 3 3 3 3 3 3 3 3 3 3 3 3 3 3 3 3 3 3 3 3 3 3 3 3 3 3 3 3 3 3 3 3 3 3 3 3 3 3 3 3 3 3 3 3 3 3 3 3 3 3 3 3 3 3 3 3 3 3 3 3 3 3 3 3 3 3 3 3 3 3 3 3 3 3 3 3 3 3 3 3 3 3 3 3 3 3 3 3 3 3 3 3 3 3 3 3 3 3 3 3 3 3 3 3 3 3 3 3 3 3 3 </vcount>
          <p>0 0 1 1 2 2 3 3 4 4 5 5 6 6 7 7 8 8 9 9 10 10 11 11 12 12 13 13 14 14 15 15 16 16 17 17 18 18 19 19 20 20 21 21 22 22 23 23 24 24 25 25 26 26 27 27 28 28 29 29 30 30 31 31 32 32 33 33 34 34 35 35 36 36 37 37 38 38 39 39 40 40 41 41 42 42 43 43 44 44 45 45 46 46 47 47 48 48 49 49 50 50 51 51 52 52 53 53 54 54 55 55 56 56 57 57 58 58 59 59 60 60 61 61 62 62 63 63 64 64 65 65 66 66 67 67 68 68 69 69 70 70 71 71 72 72 73 73 74 74 75 75 76 76 77 77 78 78 79 79 80 80 81 81 82 82 83 83 84 84 85 85 86 86 87 87 88 88 89 89 90 90 91 91 92 92 93 93 94 94 95 95 96 96 97 97 98 98 99 99 100 100 101 101 102 102 103 103 104 104 105 105 106 106 107 107 108 108 109 109 110 110 111 111 112 112 113 113 114 114 115 115 116 116 117 117 118 118 119 119 120 120 121 121 122 122 123 123 124 124 125 125 126 126 127 127 128 128 129 129 130 130 131 131 132 132 133 133 134 134 135 135 136 136 137 137 138 138 139 139 140 140 141 141 142 142 143 143 144 144 145 145 146 146 147 147 148 148 149 149 150 150 151 151 152 152 153 153 154 154 155 155 156 156 157 157 158 158 159 159 160 160 161 161 162 162 163 163 164 164 165 165 166 166 167 167 168 168 169 169 170 170 171 171 172 172 173 173 174 174 175 175 176 176 177 177 178 178 179 179 180 180 181 181 182 182 183 183 184 184 185 185 186 186 187 187 188 188 189 189 190 190 191 191 192 192 193 193 194 194 195 195 196 196 197 197 198 198 199 199 200 200 201 201 202 202 203 203 204 204 205 205 206 206 207 207 208 208 209 209 210 210 211 211 212 212 213 213 214 214 215 215 216 216 217 217 218 218 219 219 220 220 221 221 222 222 223 223 224 224 225 225 226 226 227 227 228 228 229 229 230 230 231 231 232 232 233 233 234 234 235 235 236 236 237 237 238 238 239 239 240 240 241 241 242 242 243 243 244 244 245 245 246 246 247 247 248 248 249 249 250 250 251 251 252 252 253 253 254 254 255 255 256 256 257 257 258 258 259 259 260 260 261 261 262 262 263 263 264 264 265 265 266 266 267 267 268 268 269 269 270 270 271 271 272 272 273 273 274 274 275 275 276 276 277 277 278 278 279 279 280 280 281 281 282 282 283 283 284 284 285 285 286 286 287 287 288 288 289 289 290 290 291 291 292 292 293 293 294 294 295 295 296 296 297 297 298 298 299 299 300 300 301 301 302 302 303 303 304 304 305 305 306 306 307 307 308 308 309 309 310 310 311 311 312 312 313 313 314 314 315 315 316 316 317 317 318 318 319 319 320 320 321 321 322 322 323 323 324 324 325 325 326 326 327 327 328 328 329 329 330 330 331 331 332 332 333 333 334 334 335 335 336 336 337 337 338 338 339 339 340 340 341 341 342 342 343 343 344 344 345 345 346 346 347 347 348 348 349 349 350 350 351 351 352 352 353 353 354 354 355 355 356 356 357 357 358 358 359 359 360 360 361 361 362 362 363 363 364 364 365 365 366 366 367 367 368 368 369 369 370 370 371 371 372 372 373 373 374 374 375 375 376 376 377 377 378 378 379 379 380 380 381 381 382 382 383 383 384 384 385 385 386 386 387 387 388 388 389 389 390 390 391 391 392 392 393 393 394 394 395 395 396 396 397 397 398 398 399 399 400 400 401 401 402 402 403 403 404 404 405 405 406 406 407 407 408 408 409 409 410 410 411 411 412 412 413 413 414 414 415 415 416 416 417 417 418 418 419 419 420 420 421 421 422 422 423 423 424 424 425 425 426 426 427 427 428 428 429 429 430 430 431 431 432 432 433 433 434 434 435 435 436 436 437 437 438 438 439 439 440 440 441 441 442 442 443 443 444 444 445 445 446 446 447 447 448 448 449 449 450 450 451 451 452 452 453 453 454 454 455 455 456 456 457 457 458 458 459 459 460 460 461 461 462 462 463 463 464 464 465 465 466 466 467 467 468 468 469 469 470 470 471 471 472 472 473 473 474 474 475 475 476 476 477 477 478 478 479 479 480 480 481 481 482 482 483 483 484 484 485 485 486 486 487 487 488 488 489 489 490 490 491 491</p>
        </polylist>
      </mesh>
    </geometry>
  </library_geometries>
  <library_controllers>
  </library_controllers>
  <library_visual_scenes>
    <visual_scene id="_ySTL_BINARY_" name="&lt;STL_BINARY&gt;">
      <node id="node" name="" type="NODE">
        <matrix sid="matrix">1 0 0 0 0 1 0 0 0 0 1 0 0 0 0 1</matrix>
        <instance_geometry url="#mesh_0">
          <bind_material>
            <technique_common>
              <instance_material symbol="defaultMaterial" target="#DefaultMaterial">
              </instance_material>
            </technique_common>
          </bind_material>
        </instance_geometry>
      </node>
    </visual_scene>
  </library_visual_scenes>
  <scene>
    <instance_visual_scene url="#_ySTL_BINARY_" />
  </scene>
</COLLADA>
